<mxfile host="app.diagrams.net" modified="2024-01-08T06:42:23.592Z" agent="Mozilla/5.0 (X11; Linux x86_64) AppleWebKit/537.36 (KHTML, like Gecko) Chrome/120.0.0.0 Safari/537.36" version="22.1.17" etag="gaamQI18UZc7GRcOCtGS" type="github">
  <diagram name="Page-1" id="n7QcNCkjoe0BP7meMm9v">
    <mxGraphModel>
      <root>
        <mxCell id="0" />
        <mxCell id="1" parent="0" />
      </root>
    </mxGraphModel>
  </diagram>
</mxfile>
